<?xml version="1.0" encoding="UTF-8"?>
<svg width="39px" height="44px" viewBox="0 0 39 44" version="1.1" xmlns="http://www.w3.org/2000/svg" xmlns:xlink="http://www.w3.org/1999/xlink">
    <title>60292CC9-B049-43FF-AD3A-ED9CCC711067@1.5x</title>
    <g id="mWeb" stroke="none" stroke-width="1" fill="none" fill-rule="evenodd">
        <g id="Not-Logged-In" transform="translate(-40.000000, -125.000000)">
            <g id="Curefit_V_man" transform="translate(40.000000, 125.000000)">
                <path d="M20.0961524,36.7762765 C20.6106264,36.7762765 21.0276621,37.196959 21.0276621,37.7159319 L21.0276621,37.7159319 L21.0276621,43.0602218 C21.0276621,43.5791946 20.6106264,44 20.0961524,44 L20.0961524,44 L18.7806142,44 C18.266262,44 17.8491045,43.5791946 17.8491045,43.0602218 L17.8491045,43.0602218 L17.8491045,37.7159319 C17.8491045,37.196959 18.266262,36.7762765 18.7806142,36.7762765 L18.7806142,36.7762765 Z M21.0156041,26.6413169 C21.3786834,26.6413169 21.7227622,26.8006701 21.9594154,27.0785859 L21.9594154,27.0785859 L31.5576923,38.3460956 C31.7744924,38.6004218 31.8792385,38.9245341 31.8548789,39.258844 C31.8293014,39.5930311 31.6770541,39.8974853 31.4249326,40.1158127 L31.4249326,40.1158127 L30.0851567,41.2769898 C29.8586127,41.4723418 29.5711699,41.5799697 29.2752012,41.5799697 C28.9110257,41.5799697 28.5663379,41.4206165 28.3300501,41.1427007 L28.3300501,41.1427007 L20.1693529,31.5636956 C19.986169,31.3484398 19.7196754,31.2249626 19.4384442,31.2249626 C19.157213,31.2249626 18.8907194,31.3484398 18.7074137,31.5638185 L18.7074137,31.5638185 L10.5539025,41.0968728 C10.3172494,41.3749115 9.97292695,41.5343876 9.60923867,41.5343876 C9.31253919,41.5343876 9.02485275,41.4267597 8.7992832,41.2312848 L8.7992832,41.2312848 L7.45926363,40.0701077 C7.20714215,39.8517803 7.05440769,39.5473261 7.02931734,39.2130162 C7.00422699,38.8788291 7.1095821,38.5547168 7.32613862,38.3003906 L7.32613862,38.3003906 L16.9173512,27.0787088 C17.1540044,26.8007929 17.4980832,26.6413169 17.8612843,26.6413169 L17.8612843,26.6413169 Z M37.706046,19.918874 C38.3929857,19.918874 38.9508197,20.4818317 38.9508197,21.1739184 L38.9508197,21.1739184 L38.9508197,22.9559217 C38.9508197,23.6480084 38.3929857,24.2109661 37.706046,24.2109661 L37.706046,24.2109661 L1.24416469,24.2109661 C0.558077592,24.2109661 -1.47638256e-12,23.6480084 -1.47638256e-12,22.9559217 L-1.47638256e-12,22.9559217 L-1.47638256e-12,21.1739184 C-1.47638256e-12,20.4818317 0.558077592,19.918874 1.24416469,19.918874 L1.24416469,19.918874 Z M19.4384442,6.49180328 C22.5740072,6.49180328 25.1158058,9.05595175 25.1158058,12.2190568 C25.1158058,15.3821618 22.5740072,17.9463103 19.4384442,17.9463103 C16.3027594,17.9463103 13.7607172,15.3821618 13.7607172,12.2190568 C13.7607172,9.05595175 16.3027594,6.49180328 19.4384442,6.49180328 Z M3.65904998,10.2571822 C3.94551844,9.82630206 4.52369267,9.71117953 4.95095941,9.99990732 L4.95095941,9.99990732 L10.8498712,13.9852108 C11.2777469,14.2743072 11.3919933,14.8587659 11.1047941,15.2900147 L11.1047941,15.2900147 L10.3742508,16.3868117 C10.0876605,16.8170775 9.50972986,16.9319543 9.08270671,16.6434723 L9.08270671,16.6434723 L3.18464749,12.6586602 C2.75701536,12.3696867 2.64264721,11.7857194 2.92935927,11.3544707 L2.92935927,11.3544707 Z M33.9899946,9.97373752 C34.417505,9.6851326 34.9960446,9.80025512 35.2822695,10.2310124 L35.2822695,10.2310124 L36.0118384,11.3284237 C36.2992812,11.7595496 36.1847913,12.3435169 35.7572809,12.6324904 L35.7572809,12.6324904 L29.8586127,16.6174253 C29.4323204,16.9059074 28.8537807,16.7910306 28.5675559,16.3606419 L28.5675559,16.3606419 L27.836769,15.2638449 C27.5493261,14.832719 27.6638161,14.2482603 28.0913264,13.9591639 L28.0913264,13.9591639 Z M19.4384442,9.86180943 C18.1477527,9.86180943 17.1016313,10.9172016 17.1016313,12.2190568 C17.1016313,13.520912 18.1477527,14.576427 19.4384442,14.576427 C20.7290139,14.576427 21.7752571,13.520912 21.7752571,12.2190568 C21.7752571,10.9172016 20.7290139,9.86180943 19.4384442,9.86180943 Z" id="Combined-Shape" fill="#FFFFFF"></path>
                <path d="M18.8738267,5.04918033 L20.077103,5.04918033 C20.5415003,5.04918033 20.9180328,4.61405515 20.9180328,4.07726522 L20.9180328,0.97191511 C20.9180328,0.435125175 20.5415003,0 20.077103,0 L18.8738267,0 C18.4093193,0 18.0327869,0.435125175 18.0327869,0.97191511 L18.0327869,4.07726522 C18.0327869,4.61405515 18.4093193,5.04918033 18.8738267,5.04918033" id="Fill-13" fill="#FF3278"></path>
                <path d="M11.3799119,28.2568267 L10.6361321,27.1199025 C10.3441325,26.6735856 9.75479476,26.5541773 9.31927828,26.8533344 L3.30646917,30.9825933 C2.87033194,31.2821323 2.75400385,31.8877026 3.04662425,32.3344015 L3.79127301,33.4709438 C4.08339681,33.9167515 4.67248624,34.0357778 5.10775442,33.7368753 L11.1198186,29.6079983 C11.5557076,29.3087139 11.6721598,28.7036528 11.3799119,28.2568267" id="Fill-14" fill="#00BEFF"></path>
                <path d="M35.6445544,30.9826222 L29.6309609,26.8532768 C29.1964527,26.5542499 28.6067629,26.6735297 28.3150217,27.1198422 L27.571392,28.2568825 C27.2784093,28.7035769 27.3951058,29.3087593 27.8308554,29.6080408 L33.8432075,33.736877 C34.2777157,34.0357765 34.8674054,33.9167513 35.1591467,33.470948 L35.9040179,32.3345442 C36.1970005,31.8877225 36.0803041,31.2821582 35.6445544,30.9826222" id="Fill-16" fill="#FFDC18"></path>
            </g>
        </g>
    </g>
</svg>
